<svg xmlns="http://www.w3.org/2000/svg" viewBox="70 95 360 360" role="img" aria-label="SurveySui">
  <title>SurveySui</title>
  <defs>
    <clipPath id="surveySuiDiamondClip" clipPathUnits="userSpaceOnUse">
      <path d="m 720,484.64944 h 370.9562 V 657.35017 H 720 Z M 824.23422,504 c 0,44.183 35.817,80 80,80 44.183,0 80,-35.817 80,-80 0,-44.183 -35.817,-80 -80,-80 -44.183,0 -80,35.817 -80,80 z"/>
    </clipPath>
  </defs>
  <g transform="translate(-443.60206,-63.381263)">
    <path d="M 903.19522,646.5 1072.7342,571 899.69922,495.5 737.73422,571 Z"
          stroke="#2e75b6" stroke-width="10.6667" stroke-miterlimit="8" fill="none"
          clip-path="url(#surveySuiDiamondClip)"
          transform="translate(-214.18944,-176.29847)"/>
    <path d="m 691.27765,191.32147 c -0.34979,0.037 -1.58914,2.406 -2.76818,5.297 -4.65787,11.423 -16.42315,33.182 -31.5014,58.259 -23.0682,38.363 -28.42866,50.003 -31.0903,67.493 -4.61364,30.322 12.296,59.842 40.71762,71.081 10.19826,4.033 16.60006,5.146 26.934,4.685 5.09209,-0.228 11.75825,-1.067 14.8129,-1.866 14.79078,-3.87 30.02483,-14.867 38.2359,-27.6 8.51966,-13.211 12.46688,-30.036 10.48472,-44.688 -2.28269,-16.874 -9.1539,-32.239 -29.46195,-65.881 -19.83261,-32.855 -26.99431,-45.95 -33.12773,-60.562 -1.43536,-3.42 -2.8888,-6.218 -3.22754,-6.218 -0.003,0 -0.005,0 -0.008,0 z m -52.26378,157.781 c 0.17892,-0.099 14.72444,21.398 23.99394,27.588 9.15088,6.11 22.37966,11.243 33.12773,16.228 -16.62618,-1.923 -28.90811,-6.446 -38.25098,-13.618 -8.82321,-6.773 -19.54816,-29.825 -18.87069,-30.198 z"
          fill="#51ccef"/>
    <path d="m 716.19934,436.73747 c 23.84618,-3.266 46.19569,-13.338 54.50024,-24.561 3.67382,-4.964 5.95853,-12.529 5.17552,-17.137 -0.73175,-4.308 0.31561,-7.113 4.13116,-11.068 4.31813,-4.476 2.54002,-5.747 -4.16936,-2.98 -4.4106,1.819 -5.36248,1.939 -6.82597,0.865 -6.42693,-4.72 -14.60684,-9.999 -15.49439,-9.999 -0.58098,0 -2.12388,1.392 -3.42857,3.093 l -2.37215,3.094 4.82773,4.966 c 27.03954,27.814 -39.36871,61.433 -98.5841,42.231 -20.10602,-6.519 -32.62315,-18.614 -30.92445,-29.881 0.73678,-4.887 4.81568,-11.406 9.23633,-14.761 l 3.36323,-2.552 -3.25166,-3.235 -3.25166,-3.235 -5.47707,3.364 c -3.01243,1.85 -5.77559,3.363 -6.14146,3.363 -0.36487,0 -2.12388,-1.275 -3.90802,-2.834 -4.22867,-3.694 -5.47305,-2.441 -3.03053,3.051 1.41625,3.187 1.66352,4.793 1.00414,6.518 -1.07852,2.824 -4.40557,5.239 -7.21597,5.239 -2.55409,0 -2.64957,0.897 -0.40407,3.791 0.93781,1.208 2.20832,4.221 2.82246,6.696 1.63136,6.564 4.01558,10.621 9.05439,15.405 18.75409,17.802 59.53504,26.159 100.36423,20.567 z"
          fill="#335290"/>
  </g>
</svg>
