<?xml version="1.0" encoding="UTF-8"?>
<!DOCTYPE svg PUBLIC "-//W3C//DTD SVG 1.1//EN" "http://www.w3.org/Graphics/SVG/1.1/DTD/svg11.dtd">
<svg version="1.2" width="95.25mm" height="95.25mm" viewBox="0 0 9525 9525" preserveAspectRatio="xMidYMid" fill-rule="evenodd" stroke-width="28.222" stroke-linejoin="round" xmlns="http://www.w3.org/2000/svg" xmlns:ooo="http://xml.openoffice.org/svg/export" xmlns:xlink="http://www.w3.org/1999/xlink" xmlns:presentation="http://sun.com/xmlns/staroffice/presentation" xmlns:smil="http://www.w3.org/2001/SMIL20/" xmlns:anim="urn:oasis:names:tc:opendocument:xmlns:animation:1.0" xmlns:svg="urn:oasis:names:tc:opendocument:xmlns:svg-compatible:1.0" xml:space="preserve">
 <defs class="ClipPathGroup">
  <clipPath id="presentation_clip_path" clipPathUnits="userSpaceOnUse">
   <rect x="0" y="0" width="9525" height="9525"/>
  </clipPath>
  <clipPath id="presentation_clip_path_shrink" clipPathUnits="userSpaceOnUse">
   <rect x="9" y="9" width="9506" height="9506"/>
  </clipPath>
 </defs>
 <defs class="TextShapeIndex">
  <g ooo:slide="id1" ooo:id-list="id3"/>
 </defs>
 <defs class="EmbeddedBulletChars">
  <g id="bullet-char-template-57356" transform="scale(0.00048828125,-0.00048828125)">
   <path d="M 580,1141 L 1163,571 580,0 -4,571 580,1141 Z"/>
  </g>
  <g id="bullet-char-template-57354" transform="scale(0.00048828125,-0.00048828125)">
   <path d="M 8,1128 L 1137,1128 1137,0 8,0 8,1128 Z"/>
  </g>
  <g id="bullet-char-template-10146" transform="scale(0.00048828125,-0.00048828125)">
   <path d="M 174,0 L 602,739 174,1481 1456,739 174,0 Z M 1358,739 L 309,1346 659,739 1358,739 Z"/>
  </g>
  <g id="bullet-char-template-10132" transform="scale(0.00048828125,-0.00048828125)">
   <path d="M 2015,739 L 1276,0 717,0 1260,543 174,543 174,936 1260,936 717,1481 1274,1481 2015,739 Z"/>
  </g>
  <g id="bullet-char-template-10007" transform="scale(0.00048828125,-0.00048828125)">
   <path d="M 0,-2 C -7,14 -16,27 -25,37 L 356,567 C 262,823 215,952 215,954 215,979 228,992 255,992 264,992 276,990 289,987 310,991 331,999 354,1012 L 381,999 492,748 772,1049 836,1024 860,1049 C 881,1039 901,1025 922,1006 886,937 835,863 770,784 769,783 710,716 594,584 L 774,223 C 774,196 753,168 711,139 L 727,119 C 717,90 699,76 672,76 641,76 570,178 457,381 L 164,-76 C 142,-110 111,-127 72,-127 30,-127 9,-110 8,-76 1,-67 -2,-52 -2,-32 -2,-23 -1,-13 0,-2 Z"/>
  </g>
  <g id="bullet-char-template-10004" transform="scale(0.00048828125,-0.00048828125)">
   <path d="M 285,-33 C 182,-33 111,30 74,156 52,228 41,333 41,471 41,549 55,616 82,672 116,743 169,778 240,778 293,778 328,747 346,684 L 369,508 C 377,444 397,411 428,410 L 1163,1116 C 1174,1127 1196,1133 1229,1133 1271,1133 1292,1118 1292,1087 L 1292,965 C 1292,929 1282,901 1262,881 L 442,47 C 390,-6 338,-33 285,-33 Z"/>
  </g>
  <g id="bullet-char-template-9679" transform="scale(0.00048828125,-0.00048828125)">
   <path d="M 813,0 C 632,0 489,54 383,161 276,268 223,411 223,592 223,773 276,916 383,1023 489,1130 632,1184 813,1184 992,1184 1136,1130 1245,1023 1353,916 1407,772 1407,592 1407,412 1353,268 1245,161 1136,54 992,0 813,0 Z"/>
  </g>
  <g id="bullet-char-template-8226" transform="scale(0.00048828125,-0.00048828125)">
   <path d="M 346,457 C 273,457 209,483 155,535 101,586 74,649 74,723 74,796 101,859 155,911 209,963 273,989 346,989 419,989 480,963 531,910 582,859 608,796 608,723 608,648 583,586 532,535 482,483 420,457 346,457 Z"/>
  </g>
  <g id="bullet-char-template-8211" transform="scale(0.00048828125,-0.00048828125)">
   <path d="M -4,459 L 1135,459 1135,606 -4,606 -4,459 Z"/>
  </g>
  <g id="bullet-char-template-61548" transform="scale(0.00048828125,-0.00048828125)">
   <path d="M 173,740 C 173,903 231,1043 346,1159 462,1274 601,1332 765,1332 928,1332 1067,1274 1183,1159 1299,1043 1357,903 1357,740 1357,577 1299,437 1183,322 1067,206 928,148 765,148 601,148 462,206 346,322 231,437 173,577 173,740 Z"/>
  </g>
 </defs>
 <g>
  <g id="id2" class="Master_Slide">
   <g id="bg-id2" class="Background"/>
   <g id="bo-id2" class="BackgroundObjects"/>
  </g>
 </g>
 <g class="SlideGroup">
  <g>
   <g id="container-id1">
    <g id="id1" class="Slide" clip-path="url(#presentation_clip_path)">
     <g class="Page">
      <g class="Graphic">
       <g id="id3">
        <rect class="BoundingBox" stroke="none" fill="none" x="762" y="762" width="8001" height="8001"/>
        <defs>
         <clipPath id="clip_path_1" clipPathUnits="userSpaceOnUse">
          <path d="M 762,762 L 8762,762 8762,8762 762,8762 762,762 Z "/>
         </clipPath>
        </defs>
        <g clip-path="url(#clip_path_1)"/>
        <defs>
         <clipPath id="clip_path_2" clipPathUnits="userSpaceOnUse">
          <path d="M 762,4095 L 2958,4095 C 2923,4232 2905,4376 2905,4525 2905,5507 3701,6302 4683,6302 5665,6302 6461,5507 6461,4525 6461,4376 6443,4232 6408,4095 L 8762,4095 8762,7932 762,7932 762,4095 Z M 6408,4095 C 6216,3321 5516,2747 4683,2747 3849,2747 3150,3321 2958,4095 L 6408,4095 Z "/>
         </clipPath>
        </defs>
        <g clip-path="url(#clip_path_2)">
         <path fill="none" stroke="rgb(46,117,182)" stroke-width="237" stroke-linejoin="miter" d="M 4660,7691 L 8427,6014 4582,4336 983,6014 4660,7691 Z "/>
        </g>
        <g clip-path="url(#clip_path_1)">
         <path fill="rgb(81,204,239)" stroke="none" d="M 4710,1494 C 4703,1495 4675,1547 4649,1612 4545,1866 4284,2349 3949,2906 3436,3759 3317,4018 3258,4406 3155,5080 3531,5736 4163,5986 4389,6075 4532,6100 4761,6090 4874,6085 5023,6066 5090,6048 5419,5962 5758,5718 5940,5435 6129,5142 6217,4768 6173,4442 6122,4067 5970,3726 5518,2978 5078,2248 4919,1957 4782,1632 4750,1556 4718,1494 4711,1494 L 4710,1494 4710,1494 Z M 4082,5613 C 4285,5749 4579,5863 4818,5974 4449,5931 4176,5831 3968,5671 3772,5521 3534,5009 3549,5000 3553,4998 3876,5476 4082,5613 Z "/>
         <path fill="rgb(51,82,144)" stroke="none" d="M 6475,6402 C 6557,6292 6608,6123 6590,6021 6574,5925 6597,5863 6682,5775 6778,5676 6739,5647 6589,5709 6491,5749 6470,5752 6438,5728 6295,5623 6113,5506 6093,5506 6081,5506 6046,5537 6017,5575 L 5965,5643 6072,5754 C 6673,6372 5197,7119 3881,6692 3434,6547 3156,6279 3194,6028 3210,5920 3301,5775 3399,5700 L 3474,5643 3402,5572 3329,5500 3208,5574 C 3141,5616 3079,5649 3071,5649 3063,5649 3024,5621 2984,5586 2890,5504 2863,5532 2917,5654 2948,5725 2954,5761 2939,5799 2915,5862 2841,5915 2779,5915 2722,5915 2720,5935 2770,6000 2791,6026 2819,6093 2833,6148 2869,6294 2922,6384 3034,6491 3451,6886 4357,7072 5264,6948 5794,6875 6291,6651 6475,6402 Z "/>
        </g>
       </g>
      </g>
     </g>
    </g>
   </g>
  </g>
 </g>
</svg>