<?xml version="1.0" encoding="UTF-8" standalone="no"?>
<svg
   viewBox="70 95 360 360"
   role="img"
   aria-label="SurveySui"
   version="1.1"
   id="svg4"
   sodipodi:docname="logo.svg"
   inkscape:version="1.4.2 (f4327f4, 2025-05-13)"
   xmlns:inkscape="http://www.inkscape.org/namespaces/inkscape"
   xmlns:sodipodi="http://sodipodi.sourceforge.net/DTD/sodipodi-0.dtd"
   xmlns="http://www.w3.org/2000/svg"
   xmlns:svg="http://www.w3.org/2000/svg">
  <sodipodi:namedview
     id="namedview4"
     pagecolor="#ffffff"
     bordercolor="#000000"
     borderopacity="0.25"
     inkscape:showpageshadow="2"
     inkscape:pageopacity="0.0"
     inkscape:pagecheckerboard="0"
     inkscape:deskcolor="#d1d1d1"
     inkscape:zoom="3.0523443"
     inkscape:cx="164.29995"
     inkscape:cy="192.80263"
     inkscape:window-width="1920"
     inkscape:window-height="1009"
     inkscape:window-x="-8"
     inkscape:window-y="1072"
     inkscape:window-maximized="1"
     inkscape:current-layer="svg4" />
  <title
     id="title1">SurveySui</title>
  <defs
     id="defs1">
    <clipPath
       id="surveySuiDiamondClip"
       clipPathUnits="userSpaceOnUse">
      <path
         d="m 720,484.64944 h 370.9562 V 657.35017 H 720 Z M 824.23422,504 c 0,44.183 35.817,80 80,80 44.183,0 80,-35.817 80,-80 0,-44.183 -35.817,-80 -80,-80 -44.183,0 -80,35.817 -80,80 z"
         id="path1" />
    </clipPath>
  </defs>
  <path
     style="baseline-shift:baseline;display:inline;overflow:visible;opacity:1;vector-effect:none;fill:#fff6d5;stroke-miterlimit:8;enable-background:accumulate;stop-color:#000000;stop-opacity:1"
     d="m 899.77148,501.34961 159.74022,69.69922 -156.291,69.59961 -152.7539,-69.69922 z"
     id="path5"
     transform="matrix(0.87934236,0,0,0.87934236,-543.90544,-166.30701)"
     sodipodi:nodetypes="ccccc" />
  <path
     d="M 903.19522,646.5 1072.7342,571 899.69922,495.5 737.73422,571 Z"
     stroke="#2e75b6"
     stroke-width="10.6667"
     stroke-miterlimit="8"
     fill="none"
     clip-path="url(#surveySuiDiamondClip)"
     transform="matrix(0.87934236,0,0,0.87934236,-543.90544,-166.30701)"
     id="path2"
     style="display:inline" />
  <path
     d="m 252.31013,156.95677 c -0.30758,0.0325 -1.3974,2.1157 -2.43418,4.65788 -4.09586,10.04473 -14.44157,29.17834 -27.70051,51.2296 -20.28485,33.73421 -24.99853,43.96976 -27.33902,59.34946 -4.05697,26.66342 10.81239,52.6216 35.80473,62.50453 8.96776,3.54639 14.59713,4.5251 23.6842,4.11972 4.47769,-0.20049 10.33953,-0.93826 13.02561,-1.64085 13.00616,-3.40306 26.40211,-13.07318 33.62245,-24.26985 7.4917,-11.61699 10.96266,-26.41193 9.21966,-39.29605 -2.00727,-14.83803 -8.04941,-28.34912 -25.90714,-57.93196 -17.43966,-28.89079 -23.73724,-40.40578 -29.13062,-53.25473 -1.26217,-3.00735 -2.54024,-5.46775 -2.83811,-5.46775 -0.003,0 -0.004,0 -0.007,0 z m -45.95776,138.74352 c 0.15734,-0.0871 12.94783,18.81617 21.09889,24.25929 8.04676,5.37279 19.67939,9.88645 29.13062,14.26997 -14.62011,-1.69097 -25.42013,-5.66824 -33.63571,-11.97488 -7.75862,-5.95579 -17.18952,-26.22639 -16.5938,-26.55438 z"
     fill="#51ccef"
     id="path3"
     style="display:inline;stroke-width:0.879342"
     sodipodi:insensitive="true" />
  <path
     d="m 274.22483,372.76146 c 20.96895,-2.87194 40.62182,-11.72867 47.92437,-21.59753 3.23054,-4.36506 5.23959,-11.01728 4.55105,-15.06929 -0.64346,-3.78821 0.27753,-6.25476 3.63271,-9.73256 3.79711,-3.93594 2.23354,-5.05358 -3.6663,-2.62044 -3.87843,1.59952 -4.71546,1.70504 -6.00236,0.76063 -5.65148,-4.1505 -12.84442,-8.79255 -13.62488,-8.79255 -0.51088,0 -1.86762,1.22405 -3.01488,2.71981 l -2.08594,2.72068 4.24523,4.36682 c 23.77701,24.45803 -34.61857,54.02064 -86.68917,37.13551 -17.68008,-5.73244 -28.68692,-16.36808 -27.19318,-26.27563 0.64788,-4.29735 4.23463,-10.02978 8.12189,-12.97998 l 2.95743,-2.24408 -2.85932,-2.84467 -2.85932,-2.84467 -4.81622,2.95811 c -2.64896,1.62678 -5.07872,2.95722 -5.40045,2.95722 -0.32084,0 -1.86761,-1.12116 -3.43648,-2.49205 -3.71845,-3.24829 -4.81269,-2.14648 -2.66488,2.68287 1.24537,2.80246 1.46281,4.21469 0.88299,5.73155 -0.94839,2.48327 -3.87401,4.60688 -6.34531,4.60688 -2.24592,0 -2.32988,0.78877 -0.35532,3.33359 0.82466,1.06224 1.94187,3.7117 2.48191,5.88807 1.43452,5.77201 3.53107,9.3395 7.96191,13.54627 16.49126,15.65405 52.35168,23.00272 88.25452,18.08544 z"
     fill="#335290"
     id="path4"
     style="display:inline;stroke-width:0.879342"
     sodipodi:insensitive="true" />
</svg>
